<?xml version="1.0" encoding="utf-8"?>
<!-- Generator: Adobe Illustrator 19.0.0, SVG Export Plug-In . SVG Version: 6.00 Build 0)  -->
<svg version="1.1" id="Ebene_1" xmlns="http://www.w3.org/2000/svg" xmlns:xlink="http://www.w3.org/1999/xlink" x="0px" y="0px"
	 viewBox="79 95.6 1000 1000" style="enable-background:new 79 95.6 1000 1000;" xml:space="preserve">
<style type="text/css">
	.st0{fill:#30659B;}
	.st1{fill:#FFFFFF;}
</style>
<circle class="st0" cx="579.4" cy="595.5" r="475"/>
<path class="st1" d="M579.4,137.3c-253.1,0-458.3,205.2-458.3,458.3s205.2,458.3,458.3,458.3s458.2-205.2,458.2-458.3
	S832.4,137.3,579.4,137.3z M579.4,1011.3c-229.6,0-415.7-186.2-415.7-415.7s186.1-415.7,415.7-415.7
	c229.5,0,415.6,186.1,415.6,415.7S808.9,1011.3,579.4,1011.3z"/>
<path class="st1" d="M589.5,423.4c0,5.8-4.7,10.5-10.5,10.5s-10.5-4.7-10.5-10.5s4.7-10.5,10.5-10.5
	C584.7,412.8,589.5,417.6,589.5,423.4z"/>
<path class="st1" d="M565.5,423.6c0.8,5.8-3.2,11.1-9,11.9s-11.1-3.2-11.9-9c-0.8-5.8,3.2-11.1,9-11.9
	C559.3,413.9,564.7,417.9,565.5,423.6z"/>
<path class="st1" d="M541.8,427.3c1.6,5.6-1.6,11.4-7.2,13s-11.4-1.6-13-7.2s1.6-11.4,7.2-13C534.3,418.4,540.2,421.6,541.8,427.3z"
	/>
<path class="st1" d="M518.8,434.1c2.4,5.3,0,11.5-5.3,13.9s-11.5,0-13.9-5.3s0-11.5,5.3-13.9C510.2,426.4,516.4,428.8,518.8,434.1z"
	/>
<path class="st1" d="M497,444.1c3.1,4.9,1.6,11.4-3.3,14.5s-11.4,1.6-14.5-3.4c-3.1-4.9-1.6-11.4,3.4-14.5
	C487.4,437.8,493.9,439.3,497,444.1z"/>
<path class="st1" d="M476.8,457c3.7,4.5,3.2,11.1-1.3,14.8c-4.5,3.7-11.1,3.1-14.8-1.3c-3.7-4.4-3.2-11.1,1.3-14.8
	C466.4,452,473,452.6,476.8,457z"/>
<path class="st1" d="M458.6,472.6c4.3,3.9,4.7,10.6,0.8,14.9c-3.9,4.3-10.6,4.7-14.9,0.8c-4.3-3.9-4.7-10.6-0.8-14.9
	C447.6,469.1,454.3,468.8,458.6,472.6z"/>
<path class="st1" d="M442.7,490.6c4.8,3.3,6.1,9.8,2.8,14.6c-3.3,4.8-9.8,6.1-14.6,2.8c-4.8-3.2-6.1-9.8-2.8-14.6
	C431.4,488.8,437.9,487.4,442.7,490.6z"/>
<path class="st1" d="M429.5,510.8c5.2,2.6,7.4,8.9,4.9,14.1c-2.6,5.2-8.9,7.4-14.1,4.8c-5.2-2.5-7.4-8.9-4.9-14.1
	C418,510.3,424.3,508.1,429.5,510.8z"/>
<path class="st1" d="M419.3,532.3c5.5,1.8,8.6,7.7,6.8,13.3c-1.8,5.5-7.7,8.6-13.3,6.8c-5.5-1.8-8.6-7.7-6.8-13.3
	C407.8,533.7,413.7,530.7,419.3,532.3z"/>
<path class="st1" d="M412.1,555.3c5.7,1,9.6,6.5,8.5,12.2c-1,5.7-6.5,9.6-12.2,8.5c-5.7-1-9.6-6.5-8.5-12.2
	C400.9,558.2,406.4,554.3,412.1,555.3z"/>
<path class="st1" d="M408.2,579c5.8,0.2,10.4,5.1,10.2,10.9c-0.2,5.8-5.1,10.4-10.9,10.2s-10.4-5.1-10.2-10.9
	C397.5,583.3,402.4,578.8,408.2,579z"/>
<path class="st1" d="M751.2,599.2c-5.8,0.2-10.7-4.4-10.9-10.2s4.4-10.7,10.2-10.9s10.7,4.4,10.9,10.2
	C761.6,594,757,599,751.2,599.2z"/>
<path class="st1" d="M750.1,575.2c-5.7,1-11.2-2.8-12.2-8.5s2.8-11.2,8.5-12.2s11.2,2.8,12.2,8.5
	C759.7,568.8,755.8,574.2,750.1,575.2z"/>
<path class="st1" d="M745.7,551.7c-5.5,1.8-11.5-1.2-13.3-6.8c-1.8-5.5,1.2-11.5,6.8-13.3c5.5-1.8,11.5,1.2,13.3,6.8
	C754.3,543.8,751.2,549.8,745.7,551.7z"/>
<path class="st1" d="M738,528.8c-5.2,2.5-11.5,0.4-14.1-4.9c-2.5-5.2-0.4-11.5,4.9-14.1c5.2-2.6,11.5-0.4,14.1,4.8
	C745.4,520,743.3,526.3,738,528.8z"/>
<path class="st1" d="M727.3,507.4c-4.8,3.2-11.4,2-14.6-2.8c-3.2-4.8-2-11.4,2.8-14.6c4.8-3.3,11.4-2,14.6,2.8
	C733.4,497.6,732.1,504.1,727.3,507.4z"/>
<path class="st1" d="M713.7,487.8c-4.3,3.9-11,3.5-14.9-0.8s-3.5-11,0.8-14.9s11-3.5,14.9,0.8C718.3,477.1,718,483.8,713.7,487.8z"
	/>
<path class="st1" d="M697.4,470c-3.7,4.4-10.4,5-14.9,1.3c-4.4-3.7-5-10.4-1.3-14.8c3.7-4.5,10.4-5,14.8-1.3
	C700.6,458.9,701.1,465.6,697.4,470z"/>
<path class="st1" d="M678.9,454.8c-3.1,4.9-9.6,6.4-14.5,3.4c-4.9-3.1-6.4-9.6-3.3-14.5c3.1-4.9,9.6-6.4,14.5-3.4
	C680.5,443.4,681.9,449.9,678.9,454.8z"/>
<path class="st1" d="M658.4,442.3c-2.4,5.3-8.6,7.7-13.9,5.3c-5.3-2.4-7.7-8.6-5.3-13.9s8.6-7.7,13.9-5.4
	C658.4,430.8,660.7,437,658.4,442.3z"/>
<path class="st1" d="M636.4,432.8c-1.6,5.6-7.4,8.8-13,7.2c-5.6-1.6-8.8-7.5-7.2-13c1.6-5.6,7.5-8.8,13-7.2
	C634.8,421.4,638,427.3,636.4,432.8z"/>
<path class="st1" d="M613.2,426.4c-0.8,5.7-6.1,9.8-11.9,9c-5.8-0.8-9.8-6.2-9-11.9c0.8-5.8,6.1-9.8,11.9-9
	C610.1,415.4,614.1,420.8,613.2,426.4z"/>
<circle class="st1" cx="578.9" cy="393.9" r="10.5"/>
<path class="st1" d="M561.4,394.4c0.8,5.8-3.2,11.1-9,11.9c-5.8,0.8-11.1-3.2-11.9-9s3.2-11.1,9-11.9
	C555.2,384.8,560.6,388.8,561.4,394.4z"/>
<path class="st1" d="M533.6,398.9c1.6,5.6-1.6,11.4-7.2,13c-5.6,1.6-11.4-1.6-13-7.2c-1.6-5.6,1.6-11.4,7.2-13
	C526.2,390.1,532,393.3,533.6,398.9z"/>
<path class="st1" d="M506.8,407.3c2.4,5.3,0,11.5-5.3,13.9s-11.5,0-13.9-5.3s0-11.5,5.3-13.9C498.2,399.4,504.4,401.8,506.8,407.3z"
	/>
<path class="st1" d="M481.4,419.1c3.1,4.9,1.6,11.4-3.4,14.5c-4.9,3.1-11.4,1.6-14.5-3.4c-3.1-4.9-1.6-11.4,3.4-14.5
	C471.8,412.6,478.3,414.3,481.4,419.1z"/>
<path class="st1" d="M457.8,434.4c3.7,4.4,3.2,11.1-1.3,14.8c-4.5,3.7-11.1,3.2-14.8-1.3c-3.7-4.4-3.2-11.1,1.3-14.8
	C447.4,429.4,454.1,430,457.8,434.4z"/>
<path class="st1" d="M436.7,452.9c4.3,3.9,4.7,10.5,0.8,14.9c-3.9,4.3-10.6,4.7-14.9,0.8c-4.3-3.9-4.7-10.6-0.8-14.9
	C425.7,449.4,432.3,449,436.7,452.9z"/>
<path class="st1" d="M418.3,474.3c4.8,3.3,6.1,9.8,2.8,14.6c-3.3,4.8-9.8,6.1-14.6,2.8c-4.8-3.2-6.1-9.8-2.8-14.6
	C406.9,472.3,413.5,470.9,418.3,474.3z"/>
<path class="st1" d="M403,497.8c5.2,2.5,7.4,8.9,4.8,14.1c-2.5,5.2-8.9,7.4-14.1,4.8c-5.2-2.5-7.4-8.9-4.8-14.1
	C391.5,497.4,397.8,495.3,403,497.8z"/>
<path class="st1" d="M391.2,523.3c5.5,1.8,8.6,7.7,6.8,13.3c-1.8,5.5-7.7,8.6-13.3,6.8c-5.5-1.8-8.6-7.7-6.8-13.3
	C379.7,524.5,385.7,521.5,391.2,523.3z"/>
<path class="st1" d="M383.1,550.2c5.7,1,9.6,6.5,8.5,12.2c-1,5.7-6.5,9.6-12.2,8.5c-5.7-1-9.5-6.5-8.5-12.2S377.3,549.2,383.1,550.2
	z"/>
<path class="st1" d="M378.7,578c5.8,0.2,10.4,5.1,10.2,10.9c-0.2,5.8-5.1,10.4-10.9,10.2s-10.4-5.1-10.2-10.9
	C368,582.3,372.9,577.8,378.7,578z"/>
<path class="st1" d="M780.7,598.2c-5.8,0.2-10.7-4.3-10.9-10.2c-0.2-5.8,4.4-10.7,10.2-10.9s10.7,4.4,10.9,10.2
	C791.1,593,786.5,598,780.7,598.2z"/>
<path class="st1" d="M779.2,570c-5.7,1-11.2-2.8-12.2-8.5s2.8-11.2,8.6-12.2c5.7-1,11.2,2.8,12.2,8.5
	C788.7,563.5,784.9,569,779.2,570z"/>
<path class="st1" d="M773.7,542.5c-5.5,1.8-11.5-1.2-13.3-6.8c-1.8-5.5,1.2-11.5,6.8-13.3c5.5-1.8,11.5,1.2,13.3,6.8
	C782.3,534.8,779.3,540.7,773.7,542.5z"/>
<path class="st1" d="M764.5,516c-5.2,2.5-11.5,0.4-14.1-4.9c-2.5-5.2-0.4-11.5,4.9-14.1c5.2-2.6,11.5-0.4,14.1,4.9
	C772,507.1,769.8,513.5,764.5,516z"/>
<path class="st1" d="M751.7,490.9c-4.8,3.2-11.4,2-14.6-2.9c-3.2-4.8-2-11.4,2.8-14.6c4.8-3.3,11.4-2,14.6,2.9
	C757.8,481.1,756.5,487.6,751.7,490.9z"/>
<path class="st1" d="M735.6,467.9c-4.3,3.9-11,3.5-14.9-0.8s-3.5-11,0.8-14.9s11-3.5,14.9,0.8C740.3,457.4,739.9,464,735.6,467.9z"
	/>
<path class="st1" d="M716.4,447.4c-3.7,4.4-10.4,5-14.8,1.3c-4.5-3.7-5-10.4-1.3-14.8c3.7-4.5,10.4-5,14.8-1.3
	C719.5,436.3,720.1,443,716.4,447.4z"/>
<path class="st1" d="M694.5,429.8c-3.1,4.9-9.6,6.4-14.5,3.3s-6.4-9.6-3.3-14.5c3.1-4.9,9.6-6.4,14.5-3.3
	C696.1,418.4,697.6,424.9,694.5,429.8z"/>
<path class="st1" d="M670.4,415.4c-2.4,5.3-8.6,7.7-13.9,5.3c-5.3-2.4-7.7-8.6-5.3-13.9s8.6-7.7,13.9-5.3
	C670.4,403.8,672.7,410.1,670.4,415.4z"/>
<path class="st1" d="M644.5,404.5c-1.6,5.6-7.4,8.8-13,7.2c-5.6-1.6-8.8-7.4-7.2-13s7.4-8.8,13-7.2
	C642.9,393,646.1,398.9,644.5,404.5z"/>
<path class="st1" d="M617.4,397.3c-0.8,5.7-6.1,9.8-11.9,9c-5.8-0.8-9.8-6.1-9-11.9s6.1-9.8,11.9-9
	C614.2,386.3,618.1,391.5,617.4,397.3z"/>
<path class="st1" d="M589.5,364.4c0,5.8-4.7,10.5-10.5,10.5s-10.5-4.7-10.5-10.5s4.7-10.5,10.5-10.5
	C584.7,353.8,589.5,358.6,589.5,364.4z"/>
<circle class="st1" cx="554.8" cy="365.8" r="10.5"/>
<path class="st1" d="M541.3,367.3c1.2,5.7-2.4,11.3-8.1,12.5c-5.7,1.2-11.3-2.4-12.5-8.1c-1.2-5.7,2.4-11.3,8.1-12.5
	C534.5,358,540.1,361.6,541.3,367.3z"/>
<path class="st1" d="M517.7,372.5c1.8,5.5-1.2,11.5-6.8,13.3c-5.5,1.8-11.5-1.2-13.3-6.8c-1.8-5.5,1.2-11.5,6.8-13.3
	C510,364,515.9,367,517.7,372.5z"/>
<path class="st1" d="M494.8,380.3c2.4,5.3,0,11.5-5.3,13.9s-11.5,0-13.9-5.3s0-11.5,5.3-13.9C486.2,372.5,492.4,374.9,494.8,380.3z"
	/>
<path class="st1" d="M472.8,390.3c2.9,5,1.2,11.5-3.9,14.4c-5,2.9-11.5,1.2-14.4-3.8s-1.2-11.5,3.9-14.4
	C463.4,383.5,469.9,385.3,472.8,390.3z"/>
<path class="st1" d="M452,402.5c3.4,4.7,2.4,11.3-2.3,14.7c-4.7,3.4-11.3,2.4-14.7-2.3c-3.4-4.7-2.4-11.3,2.3-14.7
	C442,396.8,448.6,397.8,452,402.5z"/>
<path class="st1" d="M432.6,416.8c3.9,4.3,3.5,11-0.8,14.9s-11,3.5-14.9-0.8s-3.5-11,0.8-14.9C422,412.3,428.7,412.5,432.6,416.8z"
	/>
<path class="st1" d="M414.7,433.3c4.3,3.9,4.7,10.6,0.8,14.9c-3.9,4.3-10.6,4.7-14.9,0.8c-4.3-3.9-4.7-10.6-0.8-14.9
	C403.8,429.6,410.4,429.3,414.7,433.3z"/>
<path class="st1" d="M398.7,451.3c4.7,3.4,5.8,10,2.3,14.7c-3.4,4.7-10,5.8-14.7,2.3c-4.7-3.4-5.8-10-2.3-14.7
	C387.4,448.9,394,447.8,398.7,451.3z"/>
<path class="st1" d="M384.7,475.1c5,2.9,6.8,9.4,3.9,14.4s-9.4,6.8-14.4,3.9s-6.8-9.4-3.9-14.4S379.7,472.3,384.7,475.1z"/>
<path class="st1" d="M372.8,496.3c5.3,2.4,7.7,8.6,5.3,13.9c-2.4,5.3-8.6,7.7-13.9,5.3s-7.7-8.6-5.3-13.9
	C361.2,496.3,367.5,493.8,372.8,496.3z"/>
<path class="st1" d="M363.1,522.5c5.5,1.8,8.6,7.7,6.8,13.3c-1.8,5.5-7.7,8.6-13.3,6.8c-5.5-1.8-8.6-7.7-6.8-13.3
	C351.7,523.8,357.6,520.8,363.1,522.5z"/>
<path class="st1" d="M355.9,549.8c5.7,1.2,9.3,6.8,8.1,12.5c-1.2,5.7-6.8,9.3-12.5,8.1c-5.7-1.2-9.3-6.8-8.1-12.5
	C344.6,552.3,350.2,548.7,355.9,549.8z"/>
<path class="st1" d="M351.1,577.8c5.8,0.6,10,5.8,9.4,11.6c-0.6,5.8-5.8,10-11.6,9.4c-5.8-0.6-10-5.8-9.4-11.6
	C340.1,581.3,345.3,577.2,351.1,577.8z"/>
<path class="st1" d="M809.8,597.8c-5.8,0.6-11-3.6-11.6-9.4s3.6-11,9.4-11.6c5.8-0.6,11,3.6,11.6,9.4
	C819.7,592,815.5,597.3,809.8,597.8z"/>
<path class="st1" d="M807,569.7c-5.7,1.2-11.3-2.4-12.5-8.1s2.4-11.3,8.1-12.5c5.7-1.2,11.3,2.4,12.5,8.1
	C816.4,562.8,812.7,568.5,807,569.7z"/>
<path class="st1" d="M801.8,546c-5.5,1.8-11.5-1.2-13.3-6.8c-1.8-5.5,1.2-11.5,6.8-13.3c5.5-1.8,11.5,1.2,13.3,6.8
	C810.4,538.3,807.3,544.3,801.8,546z"/>
<path class="st1" d="M794.2,523.2c-5.3,2.4-11.6,0-13.9-5.3c-2.4-5.3,0-11.6,5.3-13.9c5.3-2.4,11.5,0,13.9,5.3
	C801.8,514.5,799.5,520.8,794.2,523.2z"/>
<path class="st1" d="M788.3,496.9c-5.1,2.9-11.5,1.2-14.4-3.8s-1.2-11.5,3.9-14.4c5-2.9,11.5-1.2,14.4,3.8
	C795.1,487.5,793.4,494,788.3,496.9z"/>
<path class="st1" d="M776.1,471.8c-4.7,3.4-11.3,2.4-14.7-2.3c-3.4-4.7-2.4-11.3,2.3-14.7c4.7-3.4,11.3-2.4,14.7,2.3
	C781.8,461.8,780.8,468.4,776.1,471.8z"/>
<path class="st1" d="M757.5,452.4c-4.3,3.9-11,3.5-14.9-0.8s-3.6-11,0.8-14.9c4.3-3.9,11-3.5,14.9,0.8
	C762.2,441.9,761.8,448.5,757.5,452.4z"/>
<path class="st1" d="M741.2,430.4c-3.9,4.3-10.6,4.7-14.9,0.8c-4.3-3.9-4.7-10.6-0.8-14.9s10.5-4.7,14.9-0.8
	C744.7,419.4,745.1,426.1,741.2,430.4z"/>
<path class="st1" d="M723.1,414.4c-3.4,4.7-10,5.8-14.7,2.3c-4.7-3.4-5.8-10-2.3-14.7c3.4-4.7,10-5.8,14.7-2.3
	C725.5,403.1,726.5,409.8,723.1,414.4z"/>
<path class="st1" d="M703.4,400.3c-2.9,5-9.4,6.8-14.4,3.9s-6.8-9.4-3.8-14.4c2.9-5,9.3-6.8,14.4-3.9
	C704.6,388.9,706.3,395.3,703.4,400.3z"/>
<path class="st1" d="M682.4,388.4c-2.4,5.3-8.6,7.7-13.9,5.4c-5.3-2.4-7.7-8.6-5.3-13.9s8.6-7.7,13.9-5.3
	C682.4,376.9,684.8,383.1,682.4,388.4z"/>
<path class="st1" d="M660.2,378.8c-1.8,5.5-7.8,8.6-13.3,6.8c-5.5-1.8-8.6-7.7-6.8-13.3c1.8-5.5,7.7-8.6,13.3-6.8
	C659,367.3,662,373.3,660.2,378.8z"/>
<path class="st1" d="M637.2,371.5c-1.2,5.7-6.8,9.3-12.5,8.1c-5.7-1.2-9.3-6.8-8.1-12.5s6.8-9.3,12.5-8.1
	C634.8,360.3,638.4,365.8,637.2,371.5z"/>
<path class="st1" d="M613.5,366.8c-0.6,5.8-5.8,10-11.6,9.4s-10-5.8-9.4-11.6c0.6-5.8,5.8-10,11.6-9.4
	C609.9,355.8,614.1,360.9,613.5,366.8z"/>
<path class="st1" d="M589.5,334.9c0,5.8-4.7,10.5-10.5,10.5s-10.5-4.7-10.5-10.5c0-5.8,4.7-10.5,10.5-10.5
	C584.7,324.4,589.5,329.1,589.5,334.9z"/>
<path class="st1" d="M566.8,335c0.5,5.8-3.8,10.9-9.6,11.4c-5.8,0.5-10.9-3.8-11.4-9.6c-0.5-5.8,3.8-10.9,9.6-11.4
	C561.1,324.9,566.2,329.3,566.8,335z"/>
<path class="st1" d="M544.1,337.1c1,5.7-2.8,11.2-8.5,12.2c-5.7,1-11.2-2.8-12.2-8.5c-1-5.7,2.8-11.2,8.5-12.2
	C537.7,327.5,543.1,331.4,544.1,337.1z"/>
<path class="st1" d="M521.8,341.1c1.5,5.6-1.8,11.4-7.5,12.9c-5.6,1.5-11.4-1.8-12.9-7.5c-1.5-5.6,1.8-11.4,7.4-12.9
	C514.5,332.3,520.3,335.5,521.8,341.1z"/>
<path class="st1" d="M499.9,347.1c2,5.5-0.8,11.5-6.3,13.5s-11.5-0.8-13.5-6.3s0.8-11.5,6.3-13.5S497.9,341.8,499.9,347.1z"/>
<path class="st1" d="M478.6,355c2.5,5.3,0.2,11.5-5.1,14c-5.3,2.5-11.5,0.2-14-5.1c-2.5-5.3-0.2-11.5,5.1-14
	C469.9,347.4,476.1,349.8,478.6,355z"/>
<path class="st1" d="M458.1,364.8c2.9,5,1.2,11.5-3.9,14.4c-5,2.9-11.5,1.2-14.4-3.9c-2.9-5-1.2-11.5,3.9-14.4
	C448.7,357.9,455.1,359.6,458.1,364.8z"/>
<path class="st1" d="M438.4,376.1c3.3,4.8,2.2,11.3-2.6,14.7c-4.8,3.3-11.3,2.2-14.7-2.6c-3.3-4.8-2.2-11.3,2.6-14.7
	C428.5,370.3,435.1,371.4,438.4,376.1z"/>
<path class="st1" d="M419.9,389.3c3.7,4.5,3.2,11.1-1.3,14.8c-4.5,3.7-11.1,3.2-14.8-1.3c-3.7-4.4-3.2-11.1,1.3-14.8
	C409.5,384.3,416.2,384.8,419.9,389.3z"/>
<path class="st1" d="M402.6,403.9c4.1,4.1,4.1,10.8,0,14.9s-10.8,4.1-14.9,0s-4.1-10.8,0-14.9C391.8,399.8,398.5,399.8,402.6,403.9z
	"/>
<path class="st1" d="M386.6,420.1c4.5,3.7,5,10.4,1.3,14.8c-3.7,4.5-10.4,5-14.8,1.3c-4.5-3.7-5-10.4-1.3-14.8
	C375.5,416.9,382.1,416.3,386.6,420.1z"/>
<path class="st1" d="M372.1,441.8c4.8,3.3,5.9,9.9,2.6,14.7c-3.3,4.8-9.9,5.9-14.7,2.6c-4.8-3.3-5.9-9.9-2.6-14.7
	C360.7,439.6,367.3,438.4,372.1,441.8z"/>
<path class="st1" d="M359.1,460.4c5,2.9,6.8,9.4,3.9,14.4s-9.4,6.8-14.4,3.9s-6.8-9.3-3.9-14.4C347.7,459.3,354.1,457.5,359.1,460.4
	z"/>
<path class="st1" d="M347.9,480.1c5.3,2.5,7.6,8.7,5.1,14s-8.7,7.6-14,5.1s-7.6-8.7-5.1-14C336.3,479.9,342.6,477.8,347.9,480.1z"/>
<path class="st1" d="M338.4,500.8c5.5,2,8.3,8,6.3,13.5s-8,8.3-13.5,6.3s-8.3-8-6.3-13.5C326.9,501.6,332.9,498.8,338.4,500.8z"/>
<path class="st1" d="M330.7,522.2c5.6,1.5,9,7.3,7.4,12.9c-1.5,5.6-7.3,9-12.9,7.5c-5.6-1.5-9-7.3-7.4-12.9
	C319.3,524,325.1,520.7,330.7,522.2z"/>
<path class="st1" d="M325,548.3c5.7,1,9.6,6.5,8.5,12.2c-1,5.7-6.5,9.6-12.2,8.5c-5.7-1-9.6-6.5-8.5-12.2
	C313.8,551.2,319.2,547.3,325,548.3z"/>
<path class="st1" d="M321.1,575c5.8,0.5,10.1,5.6,9.6,11.4s-5.6,10.1-11.4,9.6c-5.8-0.5-10.1-5.6-9.6-11.4S315.3,574.5,321.1,575z"
	/>
<path class="st1" d="M839.4,596c-6,0.5-11.4-3.9-11.9-10c-0.5-6,3.9-11.4,10-11.9c6-0.5,11.3,3.9,11.9,10
	C849.9,590,845.5,595.3,839.4,596z"/>
<path class="st1" d="M837.3,568.3c-5.7,1-11.2-2.8-12.2-8.5s2.8-11.2,8.5-12.2s11.2,2.8,12.2,8.5S843,567.3,837.3,568.3z"/>
<path class="st1" d="M833.2,546c-5.6,1.5-11.4-1.8-12.9-7.4c-1.5-5.6,1.8-11.4,7.4-12.9c5.6-1.5,11.4,1.8,12.9,7.4
	C842.2,538.7,838.8,544.3,833.2,546z"/>
<path class="st1" d="M827.2,524c-5.5,2-11.5-0.8-13.5-6.3s0.8-11.5,6.3-13.5s11.5,0.8,13.5,6.3C835.5,516,832.7,522,827.2,524z"/>
<path class="st1" d="M819.4,502.6c-5.3,2.5-11.5,0.2-14-5.1c-2.5-5.3-0.2-11.5,5.1-14s11.5-0.2,14,5.1
	C826.9,493.9,824.6,500.3,819.4,502.6z"/>
<path class="st1" d="M809.7,477.9c-5,2.9-11.5,1.2-14.4-3.9c-2.9-5-1.2-11.5,3.9-14.4c5-2.9,11.5-1.2,14.4,3.9
	C816.4,468.5,814.7,475,809.7,477.9z"/>
<path class="st1" d="M798.2,458.3c-4.8,3.3-11.3,2.2-14.7-2.6c-3.3-4.8-2.2-11.3,2.6-14.7c4.8-3.3,11.3-2.2,14.7,2.6
	S803,454.9,798.2,458.3z"/>
<path class="st1" d="M785.1,439.8c-4.4,3.7-11.1,3.2-14.8-1.3c-3.7-4.4-3.2-11.1,1.3-14.8c4.5-3.7,11.1-3.1,14.8,1.3
	C790.2,429.4,789.5,436,785.1,439.8z"/>
<path class="st1" d="M770.4,418.3c-4.1,4.1-10.8,4.1-14.9,0c-4.1-4.1-4.1-10.8,0-14.9s10.8-4.1,14.9,0
	C774.5,407.4,774.5,414.1,770.4,418.3z"/>
<path class="st1" d="M754.3,402.3c-3.7,4.5-10.4,5.1-14.8,1.3c-4.4-3.7-5-10.4-1.3-14.8c3.7-4.5,10.4-5,14.8-1.3
	C757.5,391.1,758,397.8,754.3,402.3z"/>
<path class="st1" d="M736.8,387.8c-3.3,4.8-9.9,5.9-14.7,2.6s-5.9-9.9-2.6-14.7c3.3-4.8,9.9-5.9,14.7-2.6
	C739,376.4,740.1,382.9,736.8,387.8z"/>
<path class="st1" d="M718.2,374.8c-2.9,5-9.3,6.8-14.4,3.9c-5-2.9-6.8-9.4-3.9-14.4c2.9-5,9.4-6.8,14.4-3.9S721.1,369.8,718.2,374.8
	z"/>
<path class="st1" d="M698.4,363.5c-2.4,5.3-8.7,7.6-14,5.1c-5.3-2.4-7.6-8.7-5.1-14s8.7-7.5,14-5.1
	C698.6,352,700.9,358.3,698.4,363.5z"/>
<path class="st1" d="M677.8,354c-2,5.5-8,8.3-13.5,6.3s-8.3-8-6.3-13.5s8-8.3,13.5-6.3S679.8,348.6,677.8,354z"/>
<path class="st1" d="M656.4,346.4c-1.5,5.6-7.3,9-12.9,7.5c-5.6-1.5-9-7.3-7.4-12.9c1.5-5.6,7.3-8.9,12.9-7.4
	C654.6,335,657.9,340.8,656.4,346.4z"/>
<path class="st1" d="M634.5,340.6c-1,5.7-6.5,9.6-12.2,8.6s-9.6-6.5-8.5-12.2c1-5.7,6.5-9.5,12.2-8.5
	C631.7,329.4,635.5,334.9,634.5,340.6z"/>
<path class="st1" d="M612.1,336.9c-0.5,5.8-5.6,10.1-11.4,9.6c-5.8-0.5-10.1-5.6-9.6-11.4c0.5-5.8,5.6-10.1,11.4-9.6
	C608.3,325.9,612.6,331,612.1,336.9z"/>
<path class="st1" d="M589.5,305.4c0,5.8-4.7,10.5-10.5,10.5s-10.5-4.7-10.5-10.5c0-5.8,4.7-10.5,10.5-10.5
	C584.7,294.9,589.5,299.6,589.5,305.4z"/>
<path class="st1" d="M549.1,306.9c0.8,5.8-3.2,11.1-9,11.9c-5.8,0.8-11.1-3.2-11.9-9c-0.8-5.8,3.2-11.1,9-11.9
	C542.9,297,548.2,301,549.1,306.9z"/>
<path class="st1" d="M509.2,313.9c1.6,5.6-1.6,11.4-7.2,13s-11.4-1.6-13-7.2s1.6-11.4,7.2-13C501.8,305,507.6,308.3,509.2,313.9z"/>
<path class="st1" d="M470.8,326.4c2.4,5.3,0,11.5-5.3,13.9s-11.5,0-13.9-5.3c-2.4-5.3,0-11.5,5.3-13.9
	C462.2,318.6,468.4,321,470.8,326.4z"/>
<path class="st1" d="M434.5,344c3.1,4.9,1.6,11.4-3.3,14.5s-11.4,1.6-14.5-3.4c-3.1-4.9-1.6-11.4,3.3-14.5
	C424.9,337.6,431.4,339.1,434.5,344z"/>
<path class="st1" d="M400.9,366.6c3.7,4.5,3.2,11.1-1.3,14.8c-4.5,3.7-11.1,3.2-14.8-1.3c-3.7-4.5-3.2-11.1,1.3-14.8
	C390.6,361.6,397.2,362.3,400.9,366.6z"/>
<path class="st1" d="M370.9,393.8c4.3,3.9,4.7,10.6,0.8,14.9c-3.9,4.3-10.6,4.7-14.9,0.8c-4.3-3.9-4.7-10.6-0.8-14.9
	C359.9,390.3,366.6,389.8,370.9,393.8z"/>
<path class="st1" d="M344.9,424.8c4.8,3.3,6.1,9.8,2.8,14.6c-3.3,4.8-9.8,6.1-14.6,2.8c-4.8-3.2-6.1-9.8-2.8-14.6
	C333.5,422.8,340.1,421.4,344.9,424.8z"/>
<path class="st1" d="M323.5,459c5.2,2.6,7.4,8.9,4.9,14.1c-2.6,5.2-8.9,7.4-14.1,4.9s-7.4-8.9-4.9-14.1
	C312,458.6,318.3,456.4,323.5,459z"/>
<path class="st1" d="M307,495.9c5.5,1.8,8.6,7.7,6.8,13.3c-1.8,5.5-7.8,8.6-13.3,6.8s-8.6-7.7-6.8-13.3
	C295.6,497.1,301.5,494.1,307,495.9z"/>
<path class="st1" d="M295.9,534.8c5.7,1,9.6,6.5,8.6,12.2s-6.5,9.6-12.2,8.5c-5.7-1-9.6-6.5-8.6-12.2
	C284.7,537.7,290.2,533.8,295.9,534.8z"/>
<path class="st1" d="M290.3,574.8c5.8,0.2,10.4,5.1,10.2,10.9s-5.1,10.4-10.9,10.2c-5.8-0.2-10.4-5.1-10.2-10.9
	C279.6,579.2,284.5,574.7,290.3,574.8z"/>
<path class="st1" d="M869.1,595c-5.8,0.2-10.7-4.3-10.9-10.2c-0.2-5.8,4.3-10.7,10.2-10.9c5.8-0.2,10.7,4.3,10.9,10.2
	C879.5,590,874.9,594.8,869.1,595z"/>
<path class="st1" d="M866.3,554.8c-5.7,1-11.2-2.8-12.2-8.6c-1-5.7,2.8-11.2,8.5-12.2s11.2,2.8,12.2,8.5
	C875.9,548.3,872,553.7,866.3,554.8z"/>
<path class="st1" d="M857.9,515.2c-5.5,1.8-11.5-1.2-13.3-6.8c-1.8-5.5,1.2-11.5,6.8-13.3c5.5-1.8,11.5,1.2,13.3,6.8
	S863.4,513.3,857.9,515.2z"/>
<path class="st1" d="M844.1,477.1c-5.2,2.5-11.5,0.4-14.1-4.9c-2.6-5.2-0.4-11.5,4.8-14.1s11.5-0.4,14.1,4.8
	C851.5,468.3,849.3,474.6,844.1,477.1z"/>
<path class="st1" d="M825.1,441.4c-4.8,3.3-11.4,2-14.6-2.8c-3.3-4.8-2-11.4,2.8-14.6c4.8-3.3,11.4-2,14.6,2.8
	C831.2,431.6,829.9,438.3,825.1,441.4z"/>
<path class="st1" d="M801.3,408.8c-4.3,3.9-11,3.6-14.9-0.8c-3.9-4.3-3.5-11,0.8-14.9s11-3.6,14.9,0.8S805.7,404.8,801.3,408.8z"/>
<path class="st1" d="M773.3,379.6c-3.7,4.5-10.4,5-14.8,1.3c-4.5-3.7-5-10.4-1.3-14.8c3.7-4.5,10.4-5,14.8-1.3
	C776.4,368.5,777,375.3,773.3,379.6z"/>
<path class="st1" d="M741.4,354.8c-3.1,4.9-9.6,6.4-14.5,3.3s-6.4-9.6-3.4-14.5c3.1-4.9,9.6-6.4,14.5-3.4
	C743,343.4,744.5,349.9,741.4,354.8z"/>
<path class="st1" d="M706.4,334.5c-2.4,5.3-8.6,7.7-13.9,5.3c-5.3-2.4-7.7-8.6-5.3-13.9c2.4-5.3,8.6-7.7,13.9-5.3
	C706.4,323,708.7,329.3,706.4,334.5z"/>
<path class="st1" d="M668.9,319.4c-1.6,5.6-7.4,8.8-13,7.2s-8.8-7.4-7.2-13s7.4-8.8,13-7.2S670.5,313.9,668.9,319.4z"/>
<path class="st1" d="M629.7,309.6c-0.8,5.8-6.1,9.8-11.9,9c-5.8-0.8-9.8-6.1-9-11.9s6.1-9.8,11.9-9
	C626.5,298.5,630.5,303.9,629.7,309.6z"/>
<path class="st1" d="M589.5,271.8c0,5.8-4.7,10.5-10.5,10.5s-10.5-4.7-10.5-10.5c0-5.8,4.7-10.5,10.5-10.5
	C584.7,261.1,589.5,265.9,589.5,271.8z"/>
<path class="st1" d="M544.4,273.4c0.8,5.8-3.2,11.1-9,11.9c-5.8,0.8-11.1-3.2-11.9-9c-0.8-5.8,3.2-11.1,9-11.9
	C538.2,263.6,543.6,267.8,544.4,273.4z"/>
<path class="st1" d="M500,281.4c1.6,5.6-1.6,11.4-7.2,13s-11.4-1.6-13-7.2c-1.6-5.6,1.6-11.4,7.2-13
	C492.5,272.6,498.3,275.9,500,281.4z"/>
<path class="st1" d="M457.1,295.5c2.4,5.3,0,11.5-5.3,13.9s-11.5,0-13.9-5.3c-2.4-5.3,0-11.5,5.3-13.9S454.7,290.3,457.1,295.5z"/>
<path class="st1" d="M416.6,315.5c3.1,4.9,1.6,11.4-3.4,14.5c-4.9,3.1-11.4,1.6-14.5-3.4c-3.1-4.9-1.6-11.4,3.4-14.5
	C407,309,413.5,310.5,416.6,315.5z"/>
<path class="st1" d="M379.3,340.9c3.7,4.4,3.2,11.1-1.3,14.8s-11.1,3.2-14.8-1.3c-3.7-4.4-3.2-11.1,1.3-14.8
	C368.9,335.9,375.5,336.4,379.3,340.9z"/>
<path class="st1" d="M345.9,371.1c4.3,3.9,4.7,10.6,0.8,14.9c-3.9,4.3-10.6,4.7-14.9,0.8c-4.3-3.9-4.7-10.6-0.8-14.9
	C334.9,367.6,341.5,367.3,345.9,371.1z"/>
<path class="st1" d="M317,405.8c4.8,3.3,6.1,9.8,2.8,14.6c-3.2,4.8-9.8,6.1-14.6,2.8c-4.8-3.2-6.1-9.8-2.8-14.6
	C305.6,403.8,312.2,402.6,317,405.8z"/>
<path class="st1" d="M293.2,444.3c5.2,2.5,7.4,8.9,4.8,14.1c-2.5,5.2-8.9,7.4-14.1,4.8c-5.2-2.5-7.4-8.9-4.8-14.1
	C281.7,443.8,288,441.6,293.2,444.3z"/>
<path class="st1" d="M275,485.5c5.5,1.8,8.6,7.7,6.8,13.3c-1.8,5.5-7.7,8.6-13.3,6.8c-5.5-1.8-8.6-7.7-6.8-13.3
	C263.5,486.8,269.5,483.8,275,485.5z"/>
<path class="st1" d="M262.7,529c5.7,1,9.6,6.5,8.5,12.2c-1,5.7-6.5,9.6-12.2,8.5c-5.7-1-9.6-6.5-8.5-12.2
	C251.5,531.8,257,528,262.7,529z"/>
<path class="st1" d="M256.6,573.7c5.8,0.2,10.4,5.1,10.2,10.9c-0.2,5.8-5.1,10.4-10.9,10.2s-10.4-5.1-10.2-10.9
	C245.9,578,250.8,573.5,256.6,573.7z"/>
<path class="st1" d="M902.8,593.8c-5.8,0.2-10.7-4.4-10.9-10.2c-0.2-5.8,4.3-10.7,10.2-10.9c5.8-0.2,10.7,4.3,10.9,10.2
	C913.2,588.8,908.6,593.7,902.8,593.8z"/>
<path class="st1" d="M899.5,548.8c-5.7,1-11.2-2.8-12.2-8.6c-1-5.7,2.8-11.2,8.5-12.2s11.2,2.8,12.2,8.5
	C909.1,542.3,905.2,547.8,899.5,548.8z"/>
<path class="st1" d="M890,504.8c-5.5,1.8-11.5-1.2-13.3-6.8c-1.8-5.5,1.2-11.5,6.8-13.3c5.5-1.8,11.5,1.2,13.3,6.8
	C898.5,497,895.5,502.9,890,504.8z"/>
<path class="st1" d="M874.4,462.4c-5.2,2.5-11.5,0.4-14.1-4.9c-2.6-5.2-0.4-11.5,4.9-14.1c5.2-2.6,11.5-0.4,14.1,4.8
	C881.8,453.5,879.6,459.8,874.4,462.4z"/>
<path class="st1" d="M853.1,422.6c-4.8,3.2-11.4,2-14.6-2.8c-3.3-4.8-2-11.4,2.8-14.6c4.8-3.3,11.4-2,14.6,2.8
	C859.1,412.8,857.9,419.3,853.1,422.6z"/>
<path class="st1" d="M826.4,386.3c-4.3,3.9-11,3.5-14.9-0.8s-3.5-11,0.8-14.9s11-3.6,14.9,0.8C831.1,375.6,830.7,382.3,826.4,386.3z
	"/>
<path class="st1" d="M794.9,353.8c-3.8,4.5-10.4,5-14.9,1.3c-4.5-3.7-5-10.4-1.3-14.8c3.7-4.5,10.4-5.1,14.8-1.3
	C798.1,342.8,798.6,349.4,794.9,353.8z"/>
<path class="st1" d="M759.3,326.3c-3.1,4.9-9.6,6.4-14.5,3.4c-4.9-3.1-6.4-9.6-3.3-14.5c3.1-4.9,9.6-6.4,14.5-3.3
	C760.8,314.8,762.3,321.3,759.3,326.3z"/>
<path class="st1" d="M720.1,303.8c-2.4,5.3-8.6,7.7-13.9,5.3c-5.3-2.4-7.7-8.6-5.3-13.9c2.3-5.3,8.6-7.7,13.9-5.3
	C720.1,292.3,722.4,298.4,720.1,303.8z"/>
<path class="st1" d="M678.2,287c-1.6,5.6-7.5,8.8-13,7.2c-5.6-1.6-8.8-7.4-7.2-13s7.4-8.8,13-7.2S679.8,281.4,678.2,287z"/>
<path class="st1" d="M634.4,276.3c-0.8,5.8-6.1,9.8-11.9,9c-5.8-0.8-9.8-6.1-9-11.9c0.8-5.8,6.1-9.8,11.9-9
	C631.2,265.3,635.2,270.5,634.4,276.3z"/>
</svg>
