<?xml version="1.0" encoding="utf-8"?>
<!-- Generator: Adobe Illustrator 19.0.0, SVG Export Plug-In . SVG Version: 6.00 Build 0)  -->
<svg version="1.1" id="Ebene_1" xmlns="http://www.w3.org/2000/svg" xmlns:xlink="http://www.w3.org/1999/xlink" x="0px" y="0px"
	 viewBox="79 95.6 1000 1000" style="enable-background:new 79 95.6 1000 1000;" xml:space="preserve">
<style type="text/css">
	.st0{fill:#30659B;}
	.st1{fill:#FFFFFF;}
</style>
<path class="st0" d="M1052.6,598.2c0,262.3-212.7,475-475,475s-475-212.7-475-475s212.7-475,475-475
	C839.9,123.2,1052.6,335.9,1052.6,598.2z"/>
<path class="st1" d="M577.6,139.9c-253.1,0-458.3,205.2-458.3,458.3s205.2,458.3,458.3,458.3s458.3-205.2,458.3-458.3
	C1035.8,345,830.6,139.9,577.6,139.9z M577.6,1013.8c-229.6,0-415.7-186.1-415.7-415.7c0-229.5,186.1-415.6,415.7-415.6
	s415.7,186.1,415.7,415.7C993.2,827.8,807.1,1013.8,577.6,1013.8z"/>
<path class="st1" d="M652.5,566.3c-28.5-88.5-77.4-151.9-108.7-141.8c-5.2,1.7-9.5,5.3-13.8,10.7l0,0
	c-75.3,99.6-251.5,165.6-251.5,165.6c-15.3,4.9-16.1,43.8-2.2,86.9c13.9,43.1,37.9,74,53.1,69.1v0.1c0,0,12.3-4.3,35.7-9.1
	c12.2,15.1,46.5,60.5,54.2,100.6c2.7,14.2,26.6-9.6,28.7-19c2.6-11.4-28.5-60.7-46.3-87.8c51.9-7,130.4-11.1,231,2.9l0,0
	c5.3,1.6,10.3,1.8,15,0.2C679.1,734.5,681.1,654.8,652.5,566.3z M579.5,586.3c12.8,39.5,12.9,75.5,1,85.1
	c-11.9-19.6-23-44.2-31.8-71.6c-9.7-29.9-15.1-58.7-16.4-82.9C547.3,519.5,567.2,548.2,579.5,586.3z M425.3,707.6
	c-17.6,2.5-30.6,5.5-38.7,7.6c-9.3-12.5-18.4-30.6-25.2-51.6c-7.7-23.9-10.8-46.5-9.4-62.8c4.3-1.8,9.6-4.2,15.8-7
	c1.9-0.9,4-1.8,6-2.8c3.4-1.6,6.9-3.3,10.7-5.1c-0.1,0-0.1,0.1-0.2,0.1c40.5-20,99.6-54.1,135-96.9c-0.1,31.6,6.4,71.7,20,113.7
	c13.8,42.9,32.4,79.9,51.4,105.6C518.2,698.8,461.9,702.3,425.3,707.6z"/>
<path class="st1" d="M703.5,547.5c12.5,35.9,14.6,71.2,7.7,97.7c18.5-23.2,23.1-63.5,9.1-103.6c-14-40.2-42.7-68.8-71.7-75.4
	C670.6,482.8,691,511.6,703.5,547.5z"/>
<path class="st1" d="M768.7,526.7C787,579,790,630.5,780,669.3c27-33.8,33.7-92.6,13.2-151.1c-20.5-58.6-62.3-100.3-104.6-109.9
	C720.7,432.3,750.4,474.3,768.7,526.7z"/>
<path class="st1" d="M829.1,498c25,71.6,29.2,142.1,15.4,195.1c37-46.3,46.2-126.7,18.1-206.8c-28-80.1-85.3-137.3-143.1-150.4
	C763.3,368.8,804,426.4,829.1,498z"/>
</svg>
