<?xml version="1.0" encoding="utf-8"?>
<!-- Generator: Adobe Illustrator 19.0.0, SVG Export Plug-In . SVG Version: 6.00 Build 0)  -->
<svg version="1.1" id="Ebene_1" xmlns="http://www.w3.org/2000/svg" xmlns:xlink="http://www.w3.org/1999/xlink" x="0px" y="0px"
	 viewBox="79 95.6 1000 1000" style="enable-background:new 79 95.6 1000 1000;" xml:space="preserve">
<style type="text/css">
	.st0{fill:#30659B;}
	.st1{fill:#FFFFFF;}
	.st2{fill:#FFFFFF;stroke:#52B369;stroke-miterlimit:10;}
	.st3{fill:none;stroke:#FFFFFF;stroke-width:4;stroke-miterlimit:10;}
</style>
<path class="st0" d="M1054.1,598c0,262.3-212.7,475-475,475s-475-212.7-475-475s212.7-475,475-475S1054.1,335.6,1054.1,598z"/>
<path class="st1" d="M579.1,139.8C326,139.8,120.8,344.9,120.8,598s205.2,458.3,458.3,458.3s458.3-205.2,458.3-458.3
	C1037.4,344.9,832.2,139.8,579.1,139.8z M579.1,1013.8c-229.6,0-415.7-186.2-415.7-415.7c0-229.6,186.1-415.7,415.7-415.7
	S994.8,368.4,994.8,598C994.8,827.5,808.7,1013.8,579.1,1013.8z"/>
<path class="st2" d="M637.5,585.3l-33,33L725,738.8l0.5-0.5c0,0,0,0.1,0.1,0.2c4.3,4.3,15.2,0.2,24.5-9.1s13.5-20.1,9.2-24.4
	c-0.1-0.1-0.3-0.2-0.3-0.2l-0.9,0.9L637.5,585.3z"/>
<path class="st2" d="M474.3,375.3L394.6,455l287.7,287.7l1.1-1.1c0,0,0.1,0.3,0.4,0.6c10.2,10.2,36.1,0.4,58.1-21.6
	s31.9-47.8,21.7-57.9c-0.3-0.3-0.7-0.5-0.7-0.5l-0.9,0.9L474.3,375.3z"/>
<path class="st2" d="M503.7,369.1c31.3,31.3,31.3,82.1,0,113.4s-82.1,31.3-113.4,0s-31.3-82.1,0-113.4
	C421.7,337.9,472.4,337.9,503.7,369.1z"/>
<g>
	<path class="st2" d="M474,452.8c-31.2,31.2-68.1,44.8-82.8,30.6c31.4,30.5,81.5,30.2,112.5-0.8c30.9-30.9,31.3-80.7,1.2-112.1
		C518.5,385.3,504.9,421.8,474,452.8z"/>
</g>
<path class="st3" d="M750.1,729.5c0,0,11.8,50.2,47.8,47.2c36-2.9,48.6-21.4,58.3-5.8"/>
</svg>
