<?xml version="1.0" encoding="utf-8"?>
<!-- Generator: Adobe Illustrator 21.0.2, SVG Export Plug-In . SVG Version: 6.00 Build 0)  -->
<svg version="1.1" id="Ebene_1" xmlns="http://www.w3.org/2000/svg" xmlns:xlink="http://www.w3.org/1999/xlink" x="0px" y="0px"
	 viewBox="0 0 1000 1000" style="enable-background:new 0 0 1000 1000;" xml:space="preserve">
<style type="text/css">
	.st0{fill:#243D8F;}
	.st1{fill:#FFFFFF;}
</style>
<circle class="st0" cx="500.1" cy="502.7" r="475"/>
<path class="st1" d="M500.1,44.5C247,44.5,41.8,249.7,41.8,502.7C41.8,755.8,247,961,500.1,961s458.3-205.2,458.3-458.3
	C958.3,249.7,753.2,44.5,500.1,44.5z M500.1,918.4c-229.6,0-415.7-186.1-415.7-415.7S270.5,87,500.1,87s415.7,186.1,415.7,415.7
	C915.7,732.2,729.6,918.4,500.1,918.4z"/>
<polygon class="st1" points="670.5,577.9 336,577.9 299.7,478.9 701.6,478.9 "/>
<rect x="382" y="585.9" class="st1" width="239" height="133"/>
<g>
	<circle class="st1" cx="499.6" cy="301.9" r="51.3"/>
	<path class="st1" d="M550.9,367.4c-0.8,0-1.7,0.5-2.5,0.5h-28.5L508,402.8l-2.8-34.9h-10.5l-2.8,34.9l-12-34.9h-29
		c-0.8,0-1.7-0.5-2.5-0.5c-28.3,0-50.8,22.4-50.8,50.7l0.6,53.8H438V469l1.4-38.5l0.6-0.3c0-2.1,2-4,4.2-4c2.1,0,2.9,1.7,2.9,3.8
		l-1,39.6v2.3h103v-2.2l1.5-36.3c0-2.8,2-4.4,4.1-4.4s3.2,1.5,3.2,3.6l-0.7,36.5v2.9h43.5l1.8-53c0,0,0-0.6,0-0.9
		C602.2,389.7,579.3,367.4,550.9,367.4z"/>
</g>
</svg>
