<?xml version="1.0" encoding="utf-8"?>
<!-- Generator: Adobe Illustrator 21.0.2, SVG Export Plug-In . SVG Version: 6.00 Build 0)  -->
<svg version="1.1" id="Ebene_1" xmlns="http://www.w3.org/2000/svg" xmlns:xlink="http://www.w3.org/1999/xlink" x="0px" y="0px"
	 viewBox="0 0 1000 1000" style="enable-background:new 0 0 1000 1000;" xml:space="preserve">
<style type="text/css">
	.st0{fill:#243D8F;}
	.st1{fill:#FFFFFF;}
</style>
<circle class="st0" cx="500.4" cy="499.9" r="475"/>
<path class="st1" d="M500.4,41.7C247.3,41.7,42.1,246.9,42.1,500s205.2,458.3,458.3,458.3S958.6,753.1,958.6,500
	S753.4,41.7,500.4,41.7z M500.4,915.7C270.8,915.7,84.7,729.5,84.7,500S270.8,84.3,500.4,84.3C729.9,84.3,916,270.4,916,500
	S729.9,915.7,500.4,915.7z"/>
<path class="st1" d="M510.5,327.8c0,5.8-4.7,10.5-10.5,10.5s-10.5-4.7-10.5-10.5s4.7-10.5,10.5-10.5
	C505.7,317.2,510.5,322,510.5,327.8z"/>
<path class="st1" d="M486.5,328c0.8,5.8-3.2,11.1-9,11.9s-11.1-3.2-11.9-9c-0.8-5.8,3.2-11.1,9-11.9
	C480.3,318.3,485.7,322.3,486.5,328z"/>
<path class="st1" d="M462.8,331.7c1.6,5.6-1.6,11.4-7.2,13s-11.4-1.6-13-7.2s1.6-11.4,7.2-13C455.3,322.8,461.2,326,462.8,331.7z"/>
<path class="st1" d="M439.8,338.5c2.4,5.3,0,11.5-5.3,13.9s-11.5,0-13.9-5.3s0-11.5,5.3-13.9C431.2,330.8,437.4,333.2,439.8,338.5z"
	/>
<path class="st1" d="M418,348.5c3.1,4.9,1.6,11.4-3.3,14.5s-11.4,1.6-14.5-3.4c-3.1-4.9-1.6-11.4,3.4-14.5
	C408.4,342.2,414.9,343.7,418,348.5z"/>
<path class="st1" d="M397.8,361.4c3.7,4.5,3.2,11.1-1.3,14.8c-4.5,3.7-11.1,3.1-14.8-1.3c-3.7-4.4-3.2-11.1,1.3-14.8
	C387.4,356.4,394,357,397.8,361.4z"/>
<path class="st1" d="M379.6,377c4.3,3.9,4.7,10.6,0.8,14.9c-3.9,4.3-10.6,4.7-14.9,0.8c-4.3-3.9-4.7-10.6-0.8-14.9
	C368.6,373.5,375.3,373.2,379.6,377z"/>
<path class="st1" d="M363.7,395c4.8,3.3,6.1,9.8,2.8,14.6c-3.3,4.8-9.8,6.1-14.6,2.8c-4.8-3.2-6.1-9.8-2.8-14.6
	C352.4,393.2,358.9,391.8,363.7,395z"/>
<path class="st1" d="M350.5,415.2c5.2,2.6,7.4,8.9,4.9,14.1c-2.6,5.2-8.9,7.4-14.1,4.8c-5.2-2.5-7.4-8.9-4.9-14.1
	C339,414.7,345.3,412.5,350.5,415.2z"/>
<path class="st1" d="M340.3,436.7c5.5,1.8,8.6,7.7,6.8,13.3c-1.8,5.5-7.7,8.6-13.3,6.8c-5.5-1.8-8.6-7.7-6.8-13.3
	C328.8,438.1,334.7,435.1,340.3,436.7z"/>
<path class="st1" d="M333.1,459.7c5.7,1,9.6,6.5,8.5,12.2c-1,5.7-6.5,9.6-12.2,8.5c-5.7-1-9.6-6.5-8.5-12.2
	C321.9,462.6,327.4,458.7,333.1,459.7z"/>
<path class="st1" d="M329.2,483.4c5.8,0.2,10.4,5.1,10.2,10.9c-0.2,5.8-5.1,10.4-10.9,10.2s-10.4-5.1-10.2-10.9
	C318.5,487.7,323.4,483.2,329.2,483.4z"/>
<path class="st1" d="M672.2,503.6c-5.8,0.2-10.7-4.4-10.9-10.2s4.4-10.7,10.2-10.9s10.7,4.4,10.9,10.2
	C682.6,498.4,678,503.4,672.2,503.6z"/>
<path class="st1" d="M671.1,479.6c-5.7,1-11.2-2.8-12.2-8.5s2.8-11.2,8.5-12.2s11.2,2.8,12.2,8.5
	C680.7,473.2,676.8,478.6,671.1,479.6z"/>
<path class="st1" d="M666.7,456.1c-5.5,1.8-11.5-1.2-13.3-6.8c-1.8-5.5,1.2-11.5,6.8-13.3c5.5-1.8,11.5,1.2,13.3,6.8
	C675.3,448.2,672.2,454.2,666.7,456.1z"/>
<path class="st1" d="M659,433.2c-5.2,2.5-11.5,0.4-14.1-4.9c-2.5-5.2-0.4-11.5,4.9-14.1c5.2-2.6,11.5-0.4,14.1,4.8
	C666.4,424.4,664.3,430.7,659,433.2z"/>
<path class="st1" d="M648.3,411.8c-4.8,3.2-11.4,2-14.6-2.8c-3.2-4.8-2-11.4,2.8-14.6c4.8-3.3,11.4-2,14.6,2.8
	C654.4,402,653.1,408.5,648.3,411.8z"/>
<path class="st1" d="M634.7,392.2c-4.3,3.9-11,3.5-14.9-0.8s-3.5-11,0.8-14.9s11-3.5,14.9,0.8C639.3,381.5,639,388.2,634.7,392.2z"
	/>
<path class="st1" d="M618.4,374.4c-3.7,4.4-10.4,5-14.9,1.3c-4.4-3.7-5-10.4-1.3-14.8c3.7-4.5,10.4-5,14.8-1.3
	C621.6,363.3,622.1,370,618.4,374.4z"/>
<path class="st1" d="M599.9,359.2c-3.1,4.9-9.6,6.4-14.5,3.4c-4.9-3.1-6.4-9.6-3.3-14.5c3.1-4.9,9.6-6.4,14.5-3.4
	C601.5,347.8,602.9,354.3,599.9,359.2z"/>
<path class="st1" d="M579.4,346.7c-2.4,5.3-8.6,7.7-13.9,5.3c-5.3-2.4-7.7-8.6-5.3-13.9s8.6-7.7,13.9-5.4
	C579.4,335.2,581.7,341.4,579.4,346.7z"/>
<path class="st1" d="M557.4,337.2c-1.6,5.6-7.4,8.8-13,7.2c-5.6-1.6-8.8-7.5-7.2-13c1.6-5.6,7.5-8.8,13-7.2
	C555.8,325.8,559,331.7,557.4,337.2z"/>
<path class="st1" d="M534.2,330.8c-0.8,5.7-6.1,9.8-11.9,9c-5.8-0.8-9.8-6.2-9-11.9c0.8-5.8,6.1-9.8,11.9-9
	C531.1,319.8,535.1,325.2,534.2,330.8z"/>
<circle class="st1" cx="499.9" cy="298.3" r="10.5"/>
<path class="st1" d="M482.4,298.8c0.8,5.8-3.2,11.1-9,11.9s-11.1-3.2-11.9-9s3.2-11.1,9-11.9C476.2,289.2,481.6,293.2,482.4,298.8z"
	/>
<path class="st1" d="M454.6,303.3c1.6,5.6-1.6,11.4-7.2,13c-5.6,1.6-11.4-1.6-13-7.2c-1.6-5.6,1.6-11.4,7.2-13
	C447.2,294.5,453,297.7,454.6,303.3z"/>
<path class="st1" d="M427.8,311.7c2.4,5.3,0,11.5-5.3,13.9s-11.5,0-13.9-5.3s0-11.5,5.3-13.9C419.2,303.8,425.4,306.2,427.8,311.7z"
	/>
<path class="st1" d="M402.4,323.5c3.1,4.9,1.6,11.4-3.4,14.5c-4.9,3.1-11.4,1.6-14.5-3.4c-3.1-4.9-1.6-11.4,3.4-14.5
	C392.8,317,399.3,318.7,402.4,323.5z"/>
<path class="st1" d="M378.8,338.8c3.7,4.4,3.2,11.1-1.3,14.8c-4.5,3.7-11.1,3.2-14.8-1.3c-3.7-4.4-3.2-11.1,1.3-14.8
	C368.4,333.8,375.1,334.4,378.8,338.8z"/>
<path class="st1" d="M357.7,357.3c4.3,3.9,4.7,10.5,0.8,14.9c-3.9,4.3-10.6,4.7-14.9,0.8c-4.3-3.9-4.7-10.6-0.8-14.9
	C346.7,353.8,353.3,353.4,357.7,357.3z"/>
<path class="st1" d="M339.3,378.7c4.8,3.3,6.1,9.8,2.8,14.6c-3.3,4.8-9.8,6.1-14.6,2.8c-4.8-3.2-6.1-9.8-2.8-14.6
	C327.9,376.7,334.5,375.3,339.3,378.7z"/>
<path class="st1" d="M324,402.2c5.2,2.5,7.4,8.9,4.8,14.1c-2.5,5.2-8.9,7.4-14.1,4.8c-5.2-2.5-7.4-8.9-4.8-14.1
	S318.8,399.7,324,402.2z"/>
<path class="st1" d="M312.2,427.7c5.5,1.8,8.6,7.7,6.8,13.3c-1.8,5.5-7.7,8.6-13.3,6.8c-5.5-1.8-8.6-7.7-6.8-13.3
	C300.7,428.9,306.7,425.9,312.2,427.7z"/>
<path class="st1" d="M304.1,454.6c5.7,1,9.6,6.5,8.5,12.2c-1,5.7-6.5,9.6-12.2,8.5c-5.7-1-9.5-6.5-8.5-12.2S298.3,453.6,304.1,454.6
	z"/>
<path class="st1" d="M299.7,482.4c5.8,0.2,10.4,5.1,10.2,10.9c-0.2,5.8-5.1,10.4-10.9,10.2s-10.4-5.1-10.2-10.9
	C289,486.7,293.9,482.2,299.7,482.4z"/>
<path class="st1" d="M701.7,502.6c-5.8,0.2-10.7-4.3-10.9-10.2c-0.2-5.8,4.4-10.7,10.2-10.9s10.7,4.4,10.9,10.2
	C712.1,497.4,707.5,502.4,701.7,502.6z"/>
<path class="st1" d="M700.2,474.4c-5.7,1-11.2-2.8-12.2-8.5s2.8-11.2,8.6-12.2c5.7-1,11.2,2.8,12.2,8.5
	C709.7,467.9,705.9,473.4,700.2,474.4z"/>
<path class="st1" d="M694.7,446.9c-5.5,1.8-11.5-1.2-13.3-6.8c-1.8-5.5,1.2-11.5,6.8-13.3c5.5-1.8,11.5,1.2,13.3,6.8
	S700.3,445.1,694.7,446.9z"/>
<path class="st1" d="M685.5,420.4c-5.2,2.5-11.5,0.4-14.1-4.9c-2.5-5.2-0.4-11.5,4.9-14.1c5.2-2.6,11.5-0.4,14.1,4.9
	C693,411.5,690.8,417.9,685.5,420.4z"/>
<path class="st1" d="M672.7,395.3c-4.8,3.2-11.4,2-14.6-2.9c-3.2-4.8-2-11.4,2.8-14.6c4.8-3.3,11.4-2,14.6,2.9
	C678.8,385.5,677.5,392,672.7,395.3z"/>
<path class="st1" d="M656.6,372.3c-4.3,3.9-11,3.5-14.9-0.8s-3.5-11,0.8-14.9s11-3.5,14.9,0.8C661.3,361.8,660.9,368.4,656.6,372.3z
	"/>
<path class="st1" d="M637.4,351.8c-3.7,4.4-10.4,5-14.8,1.3c-4.5-3.7-5-10.4-1.3-14.8c3.7-4.5,10.4-5,14.8-1.3
	C640.5,340.7,641.1,347.4,637.4,351.8z"/>
<path class="st1" d="M615.5,334.2c-3.1,4.9-9.6,6.4-14.5,3.3s-6.4-9.6-3.3-14.5c3.1-4.9,9.6-6.4,14.5-3.3
	C617.1,322.8,618.6,329.3,615.5,334.2z"/>
<path class="st1" d="M591.4,319.8c-2.4,5.3-8.6,7.7-13.9,5.3c-5.3-2.4-7.7-8.6-5.3-13.9s8.6-7.7,13.9-5.3
	C591.4,308.2,593.7,314.5,591.4,319.8z"/>
<path class="st1" d="M565.5,308.9c-1.6,5.6-7.4,8.8-13,7.2c-5.6-1.6-8.8-7.4-7.2-13s7.4-8.8,13-7.2
	C563.9,297.4,567.1,303.3,565.5,308.9z"/>
<path class="st1" d="M538.4,301.7c-0.8,5.7-6.1,9.8-11.9,9c-5.8-0.8-9.8-6.1-9-11.9s6.1-9.8,11.9-9
	C535.2,290.7,539.1,295.9,538.4,301.7z"/>
<path class="st1" d="M510.5,268.8c0,5.8-4.7,10.5-10.5,10.5s-10.5-4.7-10.5-10.5s4.7-10.5,10.5-10.5
	C505.7,258.2,510.5,263,510.5,268.8z"/>
<circle class="st1" cx="475.8" cy="270.2" r="10.5"/>
<path class="st1" d="M462.3,271.7c1.2,5.7-2.4,11.3-8.1,12.5c-5.7,1.2-11.3-2.4-12.5-8.1s2.4-11.3,8.1-12.5
	C455.5,262.4,461.1,266,462.3,271.7z"/>
<path class="st1" d="M438.7,276.9c1.8,5.5-1.2,11.5-6.8,13.3c-5.5,1.8-11.5-1.2-13.3-6.8c-1.8-5.5,1.2-11.5,6.8-13.3
	C431,268.4,436.9,271.4,438.7,276.9z"/>
<path class="st1" d="M415.8,284.7c2.4,5.3,0,11.5-5.3,13.9s-11.5,0-13.9-5.3s0-11.5,5.3-13.9C407.2,276.9,413.4,279.3,415.8,284.7z"
	/>
<path class="st1" d="M393.8,294.7c2.9,5,1.2,11.5-3.9,14.4c-5,2.9-11.5,1.2-14.4-3.8s-1.2-11.5,3.9-14.4
	C384.4,287.9,390.9,289.7,393.8,294.7z"/>
<path class="st1" d="M373,306.9c3.4,4.7,2.4,11.3-2.3,14.7c-4.7,3.4-11.3,2.4-14.7-2.3c-3.4-4.7-2.4-11.3,2.3-14.7
	C363,301.2,369.6,302.2,373,306.9z"/>
<path class="st1" d="M353.6,321.2c3.9,4.3,3.5,11-0.8,14.9s-11,3.5-14.9-0.8s-3.5-11,0.8-14.9C343,316.7,349.7,316.9,353.6,321.2z"
	/>
<path class="st1" d="M335.7,337.7c4.3,3.9,4.7,10.6,0.8,14.9c-3.9,4.3-10.6,4.7-14.9,0.8c-4.3-3.9-4.7-10.6-0.8-14.9
	C324.8,334,331.4,333.7,335.7,337.7z"/>
<path class="st1" d="M319.7,355.7c4.7,3.4,5.8,10,2.3,14.7c-3.4,4.7-10,5.8-14.7,2.3c-4.7-3.4-5.8-10-2.3-14.7
	C308.4,353.3,315,352.2,319.7,355.7z"/>
<path class="st1" d="M305.7,379.5c5,2.9,6.8,9.4,3.9,14.4s-9.4,6.8-14.4,3.9s-6.8-9.4-3.9-14.4S300.7,376.7,305.7,379.5z"/>
<path class="st1" d="M293.8,400.7c5.3,2.4,7.7,8.6,5.3,13.9c-2.4,5.3-8.6,7.7-13.9,5.3s-7.7-8.6-5.3-13.9
	C282.2,400.7,288.5,398.2,293.8,400.7z"/>
<path class="st1" d="M284.1,426.9c5.5,1.8,8.6,7.7,6.8,13.3c-1.8,5.5-7.7,8.6-13.3,6.8c-5.5-1.8-8.6-7.7-6.8-13.3
	C272.7,428.2,278.6,425.2,284.1,426.9z"/>
<path class="st1" d="M276.9,454.2c5.7,1.2,9.3,6.8,8.1,12.5c-1.2,5.7-6.8,9.3-12.5,8.1s-9.3-6.8-8.1-12.5
	C265.6,456.7,271.2,453.1,276.9,454.2z"/>
<path class="st1" d="M272.1,482.2c5.8,0.6,10,5.8,9.4,11.6s-5.8,10-11.6,9.4c-5.8-0.6-10-5.8-9.4-11.6
	C261.1,485.7,266.3,481.6,272.1,482.2z"/>
<path class="st1" d="M730.8,502.2c-5.8,0.6-11-3.6-11.6-9.4s3.6-11,9.4-11.6c5.8-0.6,11,3.6,11.6,9.4
	C740.7,496.4,736.5,501.7,730.8,502.2z"/>
<path class="st1" d="M728,474.1c-5.7,1.2-11.3-2.4-12.5-8.1s2.4-11.3,8.1-12.5c5.7-1.2,11.3,2.4,12.5,8.1
	C737.4,467.2,733.7,472.9,728,474.1z"/>
<path class="st1" d="M722.8,450.4c-5.5,1.8-11.5-1.2-13.3-6.8c-1.8-5.5,1.2-11.5,6.8-13.3c5.5-1.8,11.5,1.2,13.3,6.8
	C731.4,442.7,728.3,448.7,722.8,450.4z"/>
<path class="st1" d="M715.2,427.6c-5.3,2.4-11.6,0-13.9-5.3c-2.4-5.3,0-11.6,5.3-13.9c5.3-2.4,11.5,0,13.9,5.3
	C722.8,418.9,720.5,425.2,715.2,427.6z"/>
<path class="st1" d="M709.3,401.3c-5.1,2.9-11.5,1.2-14.4-3.8s-1.2-11.5,3.9-14.4c5-2.9,11.5-1.2,14.4,3.8
	C716.1,391.9,714.4,398.4,709.3,401.3z"/>
<path class="st1" d="M697.1,376.2c-4.7,3.4-11.3,2.4-14.7-2.3c-3.4-4.7-2.4-11.3,2.3-14.7c4.7-3.4,11.3-2.4,14.7,2.3
	C702.8,366.2,701.8,372.8,697.1,376.2z"/>
<path class="st1" d="M678.5,356.8c-4.3,3.9-11,3.5-14.9-0.8s-3.6-11,0.8-14.9c4.3-3.9,11-3.5,14.9,0.8
	C683.2,346.3,682.8,352.9,678.5,356.8z"/>
<path class="st1" d="M662.2,334.8c-3.9,4.3-10.6,4.7-14.9,0.8c-4.3-3.9-4.7-10.6-0.8-14.9s10.5-4.7,14.9-0.8
	C665.7,323.8,666.1,330.5,662.2,334.8z"/>
<path class="st1" d="M644.1,318.8c-3.4,4.7-10,5.8-14.7,2.3c-4.7-3.4-5.8-10-2.3-14.7c3.4-4.7,10-5.8,14.7-2.3
	C646.5,307.5,647.5,314.2,644.1,318.8z"/>
<path class="st1" d="M624.4,304.7c-2.9,5-9.4,6.8-14.4,3.9s-6.8-9.4-3.8-14.4c2.9-5,9.3-6.8,14.4-3.9
	C625.6,293.3,627.3,299.7,624.4,304.7z"/>
<path class="st1" d="M603.4,292.8c-2.4,5.3-8.6,7.7-13.9,5.4c-5.3-2.4-7.7-8.6-5.3-13.9s8.6-7.7,13.9-5.3
	C603.4,281.3,605.8,287.5,603.4,292.8z"/>
<path class="st1" d="M581.2,283.2c-1.8,5.5-7.8,8.6-13.3,6.8c-5.5-1.8-8.6-7.7-6.8-13.3c1.8-5.5,7.7-8.6,13.3-6.8
	C580,271.7,583,277.7,581.2,283.2z"/>
<path class="st1" d="M558.2,275.9c-1.2,5.7-6.8,9.3-12.5,8.1c-5.7-1.2-9.3-6.8-8.1-12.5s6.8-9.3,12.5-8.1
	C555.8,264.7,559.4,270.2,558.2,275.9z"/>
<path class="st1" d="M534.5,271.2c-0.6,5.8-5.8,10-11.6,9.4s-10-5.8-9.4-11.6c0.6-5.8,5.8-10,11.6-9.4
	C530.9,260.2,535.1,265.3,534.5,271.2z"/>
<path class="st1" d="M510.5,239.3c0,5.8-4.7,10.5-10.5,10.5s-10.5-4.7-10.5-10.5s4.7-10.5,10.5-10.5
	C505.7,228.8,510.5,233.5,510.5,239.3z"/>
<path class="st1" d="M487.8,239.4c0.5,5.8-3.8,10.9-9.6,11.4s-10.9-3.8-11.4-9.6c-0.5-5.8,3.8-10.9,9.6-11.4
	C482.1,229.3,487.2,233.7,487.8,239.4z"/>
<path class="st1" d="M465.1,241.5c1,5.7-2.8,11.2-8.5,12.2s-11.2-2.8-12.2-8.5s2.8-11.2,8.5-12.2
	C458.7,231.9,464.1,235.8,465.1,241.5z"/>
<path class="st1" d="M442.8,245.5c1.5,5.6-1.8,11.4-7.5,12.9c-5.6,1.5-11.4-1.8-12.9-7.5c-1.5-5.6,1.8-11.4,7.4-12.9
	C435.5,236.7,441.3,239.9,442.8,245.5z"/>
<path class="st1" d="M420.9,251.5c2,5.5-0.8,11.5-6.3,13.5s-11.5-0.8-13.5-6.3s0.8-11.5,6.3-13.5S418.9,246.2,420.9,251.5z"/>
<path class="st1" d="M399.6,259.4c2.5,5.3,0.2,11.5-5.1,14c-5.3,2.5-11.5,0.2-14-5.1c-2.5-5.3-0.2-11.5,5.1-14
	C390.9,251.8,397.1,254.2,399.6,259.4z"/>
<path class="st1" d="M379.1,269.2c2.9,5,1.2,11.5-3.9,14.4c-5,2.9-11.5,1.2-14.4-3.9c-2.9-5-1.2-11.5,3.9-14.4
	C369.7,262.3,376.1,264,379.1,269.2z"/>
<path class="st1" d="M359.4,280.5c3.3,4.8,2.2,11.3-2.6,14.7c-4.8,3.3-11.3,2.2-14.7-2.6c-3.3-4.8-2.2-11.3,2.6-14.7
	C349.5,274.7,356.1,275.8,359.4,280.5z"/>
<path class="st1" d="M340.9,293.7c3.7,4.5,3.2,11.1-1.3,14.8c-4.5,3.7-11.1,3.2-14.8-1.3c-3.7-4.4-3.2-11.1,1.3-14.8
	C330.5,288.7,337.2,289.2,340.9,293.7z"/>
<path class="st1" d="M323.6,308.3c4.1,4.1,4.1,10.8,0,14.9s-10.8,4.1-14.9,0s-4.1-10.8,0-14.9C312.8,304.2,319.5,304.2,323.6,308.3z
	"/>
<path class="st1" d="M307.6,324.5c4.5,3.7,5,10.4,1.3,14.8c-3.7,4.5-10.4,5-14.8,1.3c-4.5-3.7-5-10.4-1.3-14.8
	C296.5,321.3,303.1,320.7,307.6,324.5z"/>
<path class="st1" d="M293.1,346.2c4.8,3.3,5.9,9.9,2.6,14.7c-3.3,4.8-9.9,5.9-14.7,2.6c-4.8-3.3-5.9-9.9-2.6-14.7
	C281.7,344,288.3,342.8,293.1,346.2z"/>
<path class="st1" d="M280.1,364.8c5,2.9,6.8,9.4,3.9,14.4s-9.4,6.8-14.4,3.9s-6.8-9.3-3.9-14.4C268.7,363.7,275.1,361.9,280.1,364.8
	z"/>
<path class="st1" d="M268.9,384.5c5.3,2.5,7.6,8.7,5.1,14s-8.7,7.6-14,5.1s-7.6-8.7-5.1-14C257.3,384.3,263.6,382.2,268.9,384.5z"/>
<path class="st1" d="M259.4,405.2c5.5,2,8.3,8,6.3,13.5s-8,8.3-13.5,6.3s-8.3-8-6.3-13.5C247.9,406,253.9,403.2,259.4,405.2z"/>
<path class="st1" d="M251.7,426.6c5.6,1.5,9,7.3,7.4,12.9c-1.5,5.6-7.3,9-12.9,7.5s-9-7.3-7.4-12.9
	C240.3,428.4,246.1,425.1,251.7,426.6z"/>
<path class="st1" d="M246,452.7c5.7,1,9.6,6.5,8.5,12.2c-1,5.7-6.5,9.6-12.2,8.5c-5.7-1-9.6-6.5-8.5-12.2
	C234.8,455.6,240.2,451.7,246,452.7z"/>
<path class="st1" d="M242.1,479.4c5.8,0.5,10.1,5.6,9.6,11.4s-5.6,10.1-11.4,9.6s-10.1-5.6-9.6-11.4S236.3,478.9,242.1,479.4z"/>
<path class="st1" d="M760.4,500.4c-6,0.5-11.4-3.9-11.9-10c-0.5-6,3.9-11.4,10-11.9c6-0.5,11.3,3.9,11.9,10
	C770.9,494.4,766.5,499.7,760.4,500.4z"/>
<path class="st1" d="M758.3,472.7c-5.7,1-11.2-2.8-12.2-8.5s2.8-11.2,8.5-12.2s11.2,2.8,12.2,8.5S764,471.7,758.3,472.7z"/>
<path class="st1" d="M754.2,450.4c-5.6,1.5-11.4-1.8-12.9-7.4c-1.5-5.6,1.8-11.4,7.4-12.9c5.6-1.5,11.4,1.8,12.9,7.4
	C763.2,443.1,759.8,448.7,754.2,450.4z"/>
<path class="st1" d="M748.2,428.4c-5.5,2-11.5-0.8-13.5-6.3s0.8-11.5,6.3-13.5s11.5,0.8,13.5,6.3S753.7,426.4,748.2,428.4z"/>
<path class="st1" d="M740.4,407c-5.3,2.5-11.5,0.2-14-5.1c-2.5-5.3-0.2-11.5,5.1-14s11.5-0.2,14,5.1
	C747.9,398.3,745.6,404.7,740.4,407z"/>
<path class="st1" d="M730.7,382.3c-5,2.9-11.5,1.2-14.4-3.9c-2.9-5-1.2-11.5,3.9-14.4c5-2.9,11.5-1.2,14.4,3.9
	C737.4,372.9,735.7,379.4,730.7,382.3z"/>
<path class="st1" d="M719.2,362.7c-4.8,3.3-11.3,2.2-14.7-2.6c-3.3-4.8-2.2-11.3,2.6-14.7c4.8-3.3,11.3-2.2,14.7,2.6
	S724,359.3,719.2,362.7z"/>
<path class="st1" d="M706.1,344.2c-4.4,3.7-11.1,3.2-14.8-1.3c-3.7-4.4-3.2-11.1,1.3-14.8c4.5-3.7,11.1-3.1,14.8,1.3
	C711.2,333.8,710.5,340.4,706.1,344.2z"/>
<path class="st1" d="M691.4,322.7c-4.1,4.1-10.8,4.1-14.9,0c-4.1-4.1-4.1-10.8,0-14.9s10.8-4.1,14.9,0
	C695.5,311.8,695.5,318.5,691.4,322.7z"/>
<path class="st1" d="M675.3,306.7c-3.7,4.5-10.4,5.1-14.8,1.3c-4.4-3.7-5-10.4-1.3-14.8c3.7-4.5,10.4-5,14.8-1.3
	C678.5,295.5,679,302.2,675.3,306.7z"/>
<path class="st1" d="M657.8,292.2c-3.3,4.8-9.9,5.9-14.7,2.6s-5.9-9.9-2.6-14.7c3.3-4.8,9.9-5.9,14.7-2.6
	C660,280.8,661.1,287.3,657.8,292.2z"/>
<path class="st1" d="M639.2,279.2c-2.9,5-9.3,6.8-14.4,3.9c-5-2.9-6.8-9.4-3.9-14.4c2.9-5,9.4-6.8,14.4-3.9S642.1,274.2,639.2,279.2
	z"/>
<path class="st1" d="M619.4,267.9c-2.4,5.3-8.7,7.6-14,5.1c-5.3-2.4-7.6-8.7-5.1-14s8.7-7.5,14-5.1
	C619.6,256.4,621.9,262.7,619.4,267.9z"/>
<path class="st1" d="M598.8,258.4c-2,5.5-8,8.3-13.5,6.3s-8.3-8-6.3-13.5s8-8.3,13.5-6.3S600.8,253,598.8,258.4z"/>
<path class="st1" d="M577.4,250.8c-1.5,5.6-7.3,9-12.9,7.5c-5.6-1.5-9-7.3-7.4-12.9c1.5-5.6,7.3-8.9,12.9-7.4
	C575.6,239.4,578.9,245.2,577.4,250.8z"/>
<path class="st1" d="M555.5,245c-1,5.7-6.5,9.6-12.2,8.6s-9.6-6.5-8.5-12.2c1-5.7,6.5-9.5,12.2-8.5
	C552.7,233.8,556.5,239.3,555.5,245z"/>
<path class="st1" d="M533.1,241.3c-0.5,5.8-5.6,10.1-11.4,9.6c-5.8-0.5-10.1-5.6-9.6-11.4s5.6-10.1,11.4-9.6
	C529.3,230.3,533.6,235.4,533.1,241.3z"/>
<path class="st1" d="M510.5,209.8c0,5.8-4.7,10.5-10.5,10.5s-10.5-4.7-10.5-10.5s4.7-10.5,10.5-10.5
	C505.7,199.3,510.5,204,510.5,209.8z"/>
<path class="st1" d="M470.1,211.3c0.8,5.8-3.2,11.1-9,11.9s-11.1-3.2-11.9-9c-0.8-5.8,3.2-11.1,9-11.9
	C463.9,201.4,469.2,205.4,470.1,211.3z"/>
<path class="st1" d="M430.2,218.3c1.6,5.6-1.6,11.4-7.2,13s-11.4-1.6-13-7.2s1.6-11.4,7.2-13C422.8,209.4,428.6,212.7,430.2,218.3z"
	/>
<path class="st1" d="M391.8,230.8c2.4,5.3,0,11.5-5.3,13.9s-11.5,0-13.9-5.3s0-11.5,5.3-13.9C383.2,223,389.4,225.4,391.8,230.8z"/>
<path class="st1" d="M355.5,248.4c3.1,4.9,1.6,11.4-3.3,14.5s-11.4,1.6-14.5-3.4c-3.1-4.9-1.6-11.4,3.3-14.5
	C345.9,242,352.4,243.5,355.5,248.4z"/>
<path class="st1" d="M321.9,271c3.7,4.5,3.2,11.1-1.3,14.8c-4.5,3.7-11.1,3.2-14.8-1.3c-3.7-4.5-3.2-11.1,1.3-14.8
	C311.6,266,318.2,266.7,321.9,271z"/>
<path class="st1" d="M291.9,298.2c4.3,3.9,4.7,10.6,0.8,14.9c-3.9,4.3-10.6,4.7-14.9,0.8c-4.3-3.9-4.7-10.6-0.8-14.9
	C280.9,294.7,287.6,294.2,291.9,298.2z"/>
<path class="st1" d="M265.9,329.2c4.8,3.3,6.1,9.8,2.8,14.6c-3.3,4.8-9.8,6.1-14.6,2.8c-4.8-3.2-6.1-9.8-2.8-14.6
	C254.5,327.2,261.1,325.8,265.9,329.2z"/>
<path class="st1" d="M244.5,363.4c5.2,2.6,7.4,8.9,4.9,14.1c-2.6,5.2-8.9,7.4-14.1,4.9s-7.4-8.9-4.9-14.1
	C233,363,239.3,360.8,244.5,363.4z"/>
<path class="st1" d="M228,400.3c5.5,1.8,8.6,7.7,6.8,13.3c-1.8,5.5-7.8,8.6-13.3,6.8s-8.6-7.7-6.8-13.3
	C216.6,401.5,222.5,398.5,228,400.3z"/>
<path class="st1" d="M216.9,439.2c5.7,1,9.6,6.5,8.6,12.2s-6.5,9.6-12.2,8.5c-5.7-1-9.6-6.5-8.6-12.2
	C205.7,442.1,211.2,438.2,216.9,439.2z"/>
<path class="st1" d="M211.3,479.2c5.8,0.2,10.4,5.1,10.2,10.9s-5.1,10.4-10.9,10.2s-10.4-5.1-10.2-10.9
	C200.6,483.6,205.5,479.1,211.3,479.2z"/>
<path class="st1" d="M790.1,499.4c-5.8,0.2-10.7-4.3-10.9-10.2c-0.2-5.8,4.3-10.7,10.2-10.9c5.8-0.2,10.7,4.3,10.9,10.2
	S795.9,499.2,790.1,499.4z"/>
<path class="st1" d="M787.3,459.2c-5.7,1-11.2-2.8-12.2-8.6c-1-5.7,2.8-11.2,8.5-12.2s11.2,2.8,12.2,8.5
	C796.9,452.7,793,458.1,787.3,459.2z"/>
<path class="st1" d="M778.9,419.6c-5.5,1.8-11.5-1.2-13.3-6.8c-1.8-5.5,1.2-11.5,6.8-13.3c5.5-1.8,11.5,1.2,13.3,6.8
	S784.4,417.7,778.9,419.6z"/>
<path class="st1" d="M765.1,381.5c-5.2,2.5-11.5,0.4-14.1-4.9c-2.6-5.2-0.4-11.5,4.8-14.1s11.5-0.4,14.1,4.8
	C772.5,372.7,770.3,379,765.1,381.5z"/>
<path class="st1" d="M746.1,345.8c-4.8,3.3-11.4,2-14.6-2.8c-3.3-4.8-2-11.4,2.8-14.6c4.8-3.3,11.4-2,14.6,2.8
	C752.2,336,750.9,342.7,746.1,345.8z"/>
<path class="st1" d="M722.3,313.2c-4.3,3.9-11,3.6-14.9-0.8c-3.9-4.3-3.5-11,0.8-14.9s11-3.6,14.9,0.8S726.7,309.2,722.3,313.2z"/>
<path class="st1" d="M694.3,284c-3.7,4.5-10.4,5-14.8,1.3c-4.5-3.7-5-10.4-1.3-14.8c3.7-4.5,10.4-5,14.8-1.3
	C697.4,272.9,698,279.7,694.3,284z"/>
<path class="st1" d="M662.4,259.2c-3.1,4.9-9.6,6.4-14.5,3.3s-6.4-9.6-3.4-14.5c3.1-4.9,9.6-6.4,14.5-3.4
	C664,247.8,665.5,254.3,662.4,259.2z"/>
<path class="st1" d="M627.4,238.9c-2.4,5.3-8.6,7.7-13.9,5.3c-5.3-2.4-7.7-8.6-5.3-13.9s8.6-7.7,13.9-5.3
	C627.4,227.4,629.7,233.7,627.4,238.9z"/>
<path class="st1" d="M589.9,223.8c-1.6,5.6-7.4,8.8-13,7.2s-8.8-7.4-7.2-13s7.4-8.8,13-7.2S591.5,218.3,589.9,223.8z"/>
<path class="st1" d="M550.7,214c-0.8,5.8-6.1,9.8-11.9,9c-5.8-0.8-9.8-6.1-9-11.9s6.1-9.8,11.9-9C547.5,202.9,551.5,208.3,550.7,214
	z"/>
<path class="st1" d="M510.5,176.2c0,5.8-4.7,10.5-10.5,10.5s-10.5-4.7-10.5-10.5s4.7-10.5,10.5-10.5
	C505.7,165.5,510.5,170.3,510.5,176.2z"/>
<path class="st1" d="M465.4,177.8c0.8,5.8-3.2,11.1-9,11.9s-11.1-3.2-11.9-9c-0.8-5.8,3.2-11.1,9-11.9
	C459.2,168,464.6,172.2,465.4,177.8z"/>
<path class="st1" d="M421,185.8c1.6,5.6-1.6,11.4-7.2,13s-11.4-1.6-13-7.2s1.6-11.4,7.2-13C413.5,177,419.3,180.3,421,185.8z"/>
<path class="st1" d="M378.1,199.9c2.4,5.3,0,11.5-5.3,13.9s-11.5,0-13.9-5.3s0-11.5,5.3-13.9S375.7,194.7,378.1,199.9z"/>
<path class="st1" d="M337.6,219.9c3.1,4.9,1.6,11.4-3.4,14.5c-4.9,3.1-11.4,1.6-14.5-3.4c-3.1-4.9-1.6-11.4,3.4-14.5
	C328,213.4,334.5,214.9,337.6,219.9z"/>
<path class="st1" d="M300.3,245.3c3.7,4.4,3.2,11.1-1.3,14.8s-11.1,3.2-14.8-1.3c-3.7-4.4-3.2-11.1,1.3-14.8
	C289.9,240.3,296.5,240.8,300.3,245.3z"/>
<path class="st1" d="M266.9,275.5c4.3,3.9,4.7,10.6,0.8,14.9c-3.9,4.3-10.6,4.7-14.9,0.8c-4.3-3.9-4.7-10.6-0.8-14.9
	C255.9,272,262.5,271.7,266.9,275.5z"/>
<path class="st1" d="M238,310.2c4.8,3.3,6.1,9.8,2.8,14.6c-3.2,4.8-9.8,6.1-14.6,2.8c-4.8-3.2-6.1-9.8-2.8-14.6
	C226.6,308.2,233.2,307,238,310.2z"/>
<path class="st1" d="M214.2,348.7c5.2,2.5,7.4,8.9,4.8,14.1c-2.5,5.2-8.9,7.4-14.1,4.8c-5.2-2.5-7.4-8.9-4.8-14.1
	C202.7,348.2,209,346,214.2,348.7z"/>
<path class="st1" d="M196,389.9c5.5,1.8,8.6,7.7,6.8,13.3c-1.8,5.5-7.7,8.6-13.3,6.8c-5.5-1.8-8.6-7.7-6.8-13.3
	C184.5,391.2,190.5,388.2,196,389.9z"/>
<path class="st1" d="M183.7,433.4c5.7,1,9.6,6.5,8.5,12.2c-1,5.7-6.5,9.6-12.2,8.5c-5.7-1-9.6-6.5-8.5-12.2
	C172.5,436.2,178,432.4,183.7,433.4z"/>
<path class="st1" d="M177.6,478.1c5.8,0.2,10.4,5.1,10.2,10.9c-0.2,5.8-5.1,10.4-10.9,10.2s-10.4-5.1-10.2-10.9
	C166.9,482.4,171.8,477.9,177.6,478.1z"/>
<path class="st1" d="M823.8,498.2c-5.8,0.2-10.7-4.4-10.9-10.2s4.3-10.7,10.2-10.9c5.8-0.2,10.7,4.3,10.9,10.2
	S829.6,498.1,823.8,498.2z"/>
<path class="st1" d="M820.5,453.2c-5.7,1-11.2-2.8-12.2-8.6c-1-5.7,2.8-11.2,8.5-12.2s11.2,2.8,12.2,8.5
	C830.1,446.7,826.2,452.2,820.5,453.2z"/>
<path class="st1" d="M811,409.2c-5.5,1.8-11.5-1.2-13.3-6.8c-1.8-5.5,1.2-11.5,6.8-13.3c5.5-1.8,11.5,1.2,13.3,6.8
	C819.5,401.4,816.5,407.3,811,409.2z"/>
<path class="st1" d="M795.4,366.8c-5.2,2.5-11.5,0.4-14.1-4.9c-2.6-5.2-0.4-11.5,4.9-14.1c5.2-2.6,11.5-0.4,14.1,4.8
	C802.8,357.9,800.6,364.2,795.4,366.8z"/>
<path class="st1" d="M774.1,327c-4.8,3.2-11.4,2-14.6-2.8c-3.3-4.8-2-11.4,2.8-14.6c4.8-3.3,11.4-2,14.6,2.8
	C780.1,317.2,778.9,323.7,774.1,327z"/>
<path class="st1" d="M747.4,290.7c-4.3,3.9-11,3.5-14.9-0.8s-3.5-11,0.8-14.9s11-3.6,14.9,0.8C752.1,280,751.7,286.7,747.4,290.7z"
	/>
<path class="st1" d="M715.9,258.2c-3.8,4.5-10.4,5-14.9,1.3s-5-10.4-1.3-14.8c3.7-4.5,10.4-5.1,14.8-1.3
	C719.1,247.2,719.6,253.8,715.9,258.2z"/>
<path class="st1" d="M680.3,230.7c-3.1,4.9-9.6,6.4-14.5,3.4c-4.9-3.1-6.4-9.6-3.3-14.5c3.1-4.9,9.6-6.4,14.5-3.3
	C681.8,219.2,683.3,225.7,680.3,230.7z"/>
<path class="st1" d="M641.1,208.2c-2.4,5.3-8.6,7.7-13.9,5.3c-5.3-2.4-7.7-8.6-5.3-13.9c2.3-5.3,8.6-7.7,13.9-5.3
	C641.1,196.7,643.4,202.8,641.1,208.2z"/>
<path class="st1" d="M599.2,191.4c-1.6,5.6-7.5,8.8-13,7.2c-5.6-1.6-8.8-7.4-7.2-13s7.4-8.8,13-7.2S600.8,185.8,599.2,191.4z"/>
<path class="st1" d="M555.4,180.7c-0.8,5.8-6.1,9.8-11.9,9c-5.8-0.8-9.8-6.1-9-11.9s6.1-9.8,11.9-9
	C552.2,169.7,556.2,174.9,555.4,180.7z"/>
</svg>
