<?xml version="1.0" encoding="utf-8"?>
<!-- Generator: Adobe Illustrator 19.0.0, SVG Export Plug-In . SVG Version: 6.00 Build 0)  -->
<svg version="1.1" id="Ebene_1" xmlns="http://www.w3.org/2000/svg" xmlns:xlink="http://www.w3.org/1999/xlink" x="0px" y="0px"
	 viewBox="79 95.6 1000 1000" style="enable-background:new 79 95.6 1000 1000;" xml:space="preserve">
<style type="text/css">
	.st0{fill:#30659B;}
	.st1{fill:#FFFFFF;}
</style>
<circle class="st0" cx="579.1" cy="598.3" r="475"/>
<path class="st1" d="M579.1,140.1c-253.1,0-458.3,205.2-458.3,458.2c0,253.1,205.2,458.3,458.3,458.3s458.3-205.2,458.3-458.3
	C1037.3,345.3,832.2,140.1,579.1,140.1z M579.1,1014c-229.6,0-415.7-186.1-415.7-415.7s186.1-415.7,415.7-415.7
	s415.7,186.1,415.7,415.7C994.7,827.8,808.6,1014,579.1,1014z"/>
<polygon class="st1" points="749.5,673.5 415,673.5 378.7,574.5 780.6,574.5 "/>
<rect x="461" y="681.5" class="st1" width="239" height="133"/>
<g>
	<circle class="st1" cx="578.6" cy="397.5" r="51.3"/>
	<path class="st1" d="M629.9,463c-0.8,0-1.7,0.5-2.5,0.5h-28.5L587,498.4l-2.8-34.9h-10.5l-2.8,34.9l-12-34.9h-29
		c-0.8,0-1.7-0.5-2.5-0.5c-28.3,0-50.8,22.4-50.8,50.7l0.6,53.8H517v-2.9l1.4-38.5l0.6-0.3c0-2.1,2-4,4.2-4c2.1,0,2.9,1.7,2.9,3.8
		l-1,39.6v2.3h103v-2.2l1.5-36.3c0-2.8,2-4.4,4.1-4.4s3.2,1.5,3.2,3.6l-0.7,36.5v2.9h43.5l1.8-53c0,0,0-0.6,0-0.9
		C681.2,485.3,658.3,463,629.9,463z"/>
</g>
</svg>
