<?xml version="1.0" encoding="utf-8"?>
<!-- Generator: Adobe Illustrator 21.0.2, SVG Export Plug-In . SVG Version: 6.00 Build 0)  -->
<svg version="1.1" id="Ebene_1" xmlns="http://www.w3.org/2000/svg" xmlns:xlink="http://www.w3.org/1999/xlink" x="0px" y="0px"
	 viewBox="0 0 1000 1000" style="enable-background:new 0 0 1000 1000;" xml:space="preserve">
<style type="text/css">
	.st0{fill:#243D8F;}
	.st1{fill:#FFFFFF;}
	.st2{fill:#FFFFFF;stroke:#52B369;stroke-miterlimit:10;}
	.st3{fill:none;stroke:#FFFFFF;stroke-width:4;stroke-miterlimit:10;}
</style>
<path class="st0" d="M975.1,502.4c0,262.3-212.7,475-475,475s-475-212.7-475-475s212.7-475,475-475S975.1,240,975.1,502.4z"/>
<path class="st1" d="M500.1,44.2C247,44.2,41.8,249.3,41.8,502.4S247,960.7,500.1,960.7s458.3-205.2,458.3-458.3
	C958.4,249.3,753.2,44.2,500.1,44.2z M500.1,918.2C270.5,918.2,84.4,732,84.4,502.5c0-229.6,186.1-415.7,415.7-415.7
	s415.7,186,415.7,415.6C915.8,731.9,729.7,918.2,500.1,918.2z"/>
<path class="st2" d="M558.5,489.7l-33,33L646,643.2l0.5-0.5c0,0,0,0.1,0.1,0.2c4.3,4.3,15.2,0.2,24.5-9.1s13.5-20.1,9.2-24.4
	c-0.1-0.1-0.3-0.2-0.3-0.2l-0.9,0.9L558.5,489.7z"/>
<path class="st2" d="M395.3,279.7l-79.7,79.7l287.7,287.7l1.1-1.1c0,0,0.1,0.3,0.4,0.6c10.2,10.2,36.1,0.4,58.1-21.6
	s31.9-47.8,21.7-57.9c-0.3-0.3-0.7-0.5-0.7-0.5l-0.9,0.9L395.3,279.7z"/>
<path class="st2" d="M424.7,273.5c31.3,31.3,31.3,82.1,0,113.4s-82.1,31.3-113.4,0s-31.3-82.1,0-113.4
	C342.7,242.3,393.4,242.3,424.7,273.5z"/>
<g>
	<path class="st2" d="M395,357.2c-31.2,31.2-68.1,44.8-82.8,30.6c31.4,30.5,81.5,30.2,112.5-0.8c30.9-30.9,31.3-80.7,1.2-112.1
		C439.5,289.7,425.9,326.2,395,357.2z"/>
</g>
<path class="st3" d="M671.1,633.9c0,0,11.8,50.2,47.8,47.2c36-2.9,48.6-21.4,58.3-5.8"/>
</svg>
